<svg xmlns="http://www.w3.org/2000/svg" version="1.1" xmlns:xlink="http://www.w3.org/1999/xlink" xmlns:svgjs="http://svgjs.dev/svgjs" width="1000" height="1000" viewBox="0 0 1000 1000"><rect width="1000" height="1000" fill="#ffffff"></rect><g transform="matrix(0.7,0,0,0.7,149.57575757575756,424.32185012471507)"><svg viewBox="0 0 396 86" data-background-color="#ffffff" preserveAspectRatio="xMidYMid meet" height="217" width="1000" xmlns="http://www.w3.org/2000/svg" xmlns:xlink="http://www.w3.org/1999/xlink"><g id="tight-bounds" transform="matrix(1,0,0,1,0.2400000000000091,-0.1539111963495543)"><svg viewBox="0 0 395.52 86.30782239269911" height="86.30782239269911" width="395.52"><g><svg viewBox="0 0 395.52 86.30782239269911" height="86.30782239269911" width="395.52"><g><svg viewBox="0 0 395.52 86.30782239269911" height="86.30782239269911" width="395.52"><g id="textblocktransform"><svg viewBox="0 0 395.52 86.30782239269911" height="86.30782239269911" width="395.52" id="textblock"><g><rect width="395.52" height="71.37627688053097" fill="none" stroke-width="9.018103199999999" stroke="#ffffff" data-fill-palette-color="none" data-stroke-palette-color="tertiary"></rect><rect width="395.52" height="14.931545512168142" y="71.37627688053097" fill="#ffffff" data-fill-palette-color="tertiary"></rect></g><g><svg viewBox="0 0 395.52 71.37627688053097" height="71.37627688053097" width="395.52"><g transform="matrix(1,0,0,1,23.607599999999998,23.607599999999998)"><svg width="348.3048" viewBox="1.93 -36.25 529.6500000000001 36.74" height="24.161076880530974" data-palette-color="#ffffff"><path d="M28.61 0L25.22-9.72 9.79-9.72 6.45 0 1.93 0 15.23-35.77 20.31-35.77 33.64 0 28.61 0ZM11.08-13.45L23.88-13.45 19.14-27.42 17.75-32.4 17.26-32.4 15.87-27.42 11.08-13.45ZM56.98-19.73L56.98-19.73Q58.47-19.31 59.8-18.55 61.13-17.8 62.13-16.76 63.13-15.72 63.73-14.39 64.33-13.06 64.33-11.5L64.33-11.5Q64.33-10.25 63.93-8.91 63.52-7.57 62.72-6.29 61.91-5 60.72-3.87 59.52-2.73 57.93-1.87 56.35-1 54.38-0.5 52.41 0 50.07 0L50.07 0 40.89 0 40.89-35.77 50.95-35.77Q53.9-35.77 56.1-35.08 58.3-34.4 59.76-33.3 61.23-32.2 61.96-30.81 62.69-29.42 62.69-27.98L62.69-27.98Q62.69-26.76 62.2-25.57 61.72-24.39 60.92-23.33 60.13-22.27 59.1-21.35 58.08-20.43 56.98-19.73ZM45.68-16.77L45.68-3.78 50.61-3.78Q53.05-3.78 54.71-4.41 56.37-5.03 57.39-6.02 58.42-7.01 58.86-8.24 59.3-9.47 59.3-10.72L59.3-10.72Q59.3-12.28 58.68-13.42 58.05-14.55 56.91-15.3 55.76-16.04 54.15-16.41 52.54-16.77 50.56-16.77L50.56-16.77 45.68-16.77ZM45.68-20.56L54.07-20.56Q55.83-21.78 56.87-23.29 57.91-24.8 57.91-26.64L57.91-26.64Q57.91-29.1 55.91-30.54 53.9-31.98 50.12-31.98L50.12-31.98 45.68-31.98 45.68-20.56ZM72.55 0L72.55-35.77 84.64-35.77Q89.37-35.77 92.95-34.46 96.53-33.15 98.92-30.91 101.31-28.66 102.52-25.61 103.73-22.56 103.73-19.09L103.73-19.09Q103.73-16.85 103.22-14.56 102.7-12.28 101.64-10.16 100.58-8.03 98.97-6.18 97.36-4.32 95.15-2.95 92.94-1.59 90.12-0.79 87.3 0 83.86 0L83.86 0 72.55 0ZM77.34-31.98L77.34-3.78 84.74-3.78Q88.28-3.78 90.91-4.92 93.55-6.05 95.27-8 96.99-9.94 97.85-12.54 98.7-15.14 98.7-18.09L98.7-18.09Q98.7-21.31 97.71-23.89 96.72-26.46 94.83-28.26 92.94-30.05 90.17-31.02 87.4-31.98 83.86-31.98L83.86-31.98 77.34-31.98ZM112.42-35.77L117.2-35.77 117.2-13.55Q117.2-10.89 118.08-8.95 118.96-7.01 120.37-5.75 121.77-4.49 123.5-3.89 125.24-3.3 126.97-3.3L126.97-3.3Q128.73-3.3 130.31-3.92 131.9-4.54 133.09-5.77 134.27-7.01 134.98-8.85 135.69-10.69 135.69-13.16L135.69-13.16 135.69-35.77 140.08-35.77 140.08-13.21Q140.08-11.72 139.71-10.12 139.35-8.52 138.6-7.01 137.86-5.49 136.71-4.13 135.56-2.76 134-1.73 132.44-0.71 130.44-0.11 128.43 0.49 125.97 0.49L125.97 0.49Q122.97 0.49 120.48-0.45 117.99-1.39 116.19-3.19 114.4-4.98 113.41-7.6 112.42-10.23 112.42-13.57L112.42-13.57 112.42-35.77ZM169.33 0L150.48 0 150.48-35.77 155.26-35.77 155.26-3.78 170.06-3.78 169.33 0ZM196.18 0L177.33 0 177.33-35.77 182.12-35.77 182.12-3.78 196.91-3.78 196.18 0ZM228.48 0L225.08-9.72 209.65-9.72 206.31 0 201.79 0 215.1-35.77 220.18-35.77 233.51 0 228.48 0ZM210.95-13.45L223.74-13.45 219-27.42 217.61-32.4 217.12-32.4 215.73-27.42 210.95-13.45ZM245.54 0L240.75 0 240.75-35.77 245.54-35.77 245.54-20.56 264.78-20.56 264.78-35.77 269.56-35.77 269.56 0 264.78 0 264.78-16.77 245.54-16.77 245.54 0ZM294.41 0L290.14 0 292.85-35.77 300.03-35.77 308.86-10.79 310.23-6.13 310.72-6.13 312.06-10.79 320.92-35.77 328.13-35.77 330.84 0 326.12 0 324.22-28.08 324.03-33.2 323.56-33.2 322.15-28.32 312.48-0.73 308.16-0.73 298.39-28.27 296.93-33.2 296.46-33.2 296.32-28.13 294.41 0ZM356.57-3.3L356.57-3.3Q359.37-3.3 361.71-4.42 364.04-5.54 365.72-7.51 367.41-9.47 368.33-12.11 369.26-14.75 369.26-17.8L369.26-17.8Q369.26-21 368.25-23.69 367.24-26.39 365.47-28.34 363.7-30.3 361.32-31.38 358.93-32.47 356.2-32.47L356.2-32.47Q353.34-32.47 351.01-31.31 348.68-30.15 347.02-28.17 345.36-26.2 344.45-23.55 343.53-20.9 343.53-17.9L343.53-17.9Q343.53-14.7 344.53-12.02 345.53-9.35 347.29-7.41 349.05-5.47 351.43-4.38 353.81-3.3 356.57-3.3ZM355.74 0.49L355.74 0.49Q352.32 0.49 349.19-0.73 346.07-1.95 343.69-4.22 341.31-6.49 339.9-9.73 338.5-12.96 338.5-16.99L338.5-16.99Q338.5-19.78 339.2-22.28 339.89-24.78 341.14-26.92 342.38-29.05 344.1-30.79 345.82-32.52 347.9-33.73 349.98-34.94 352.31-35.6 354.64-36.25 357.13-36.25L357.13-36.25Q359.35-36.25 361.49-35.72 363.62-35.18 365.54-34.16 367.46-33.13 369.05-31.62 370.65-30.1 371.83-28.17 373-26.25 373.64-23.89 374.29-21.53 374.29-18.8L374.29-18.8Q374.29-16.04 373.62-13.53 372.95-11.01 371.72-8.87 370.48-6.74 368.79-5 367.09-3.27 365.03-2.05 362.96-0.83 360.61-0.17 358.25 0.49 355.74 0.49ZM392.72-3.3L392.72-3.3Q394.33-3.3 395.7-3.72 397.07-4.15 398.04-4.94 399.02-5.74 399.57-6.84 400.12-7.93 400.12-9.28L400.12-9.28Q400.12-10.86 399.37-11.96 398.63-13.06 397.42-13.89 396.21-14.72 394.65-15.37 393.09-16.02 391.48-16.69 389.87-17.36 388.3-18.14 386.74-18.92 385.53-20.04 384.32-21.17 383.58-22.69 382.83-24.22 382.83-26.39L382.83-26.39Q382.83-28.69 383.71-30.52 384.59-32.35 386.17-33.63 387.74-34.91 389.9-35.58 392.06-36.25 394.65-36.25L394.65-36.25Q396.24-36.25 398.63-35.95 401.02-35.64 403.71-34.84L403.71-34.84 402.9-30.59 402.41-30.35Q401.07-30.96 399.8-31.37 398.53-31.79 397.41-32.03 396.29-32.28 395.33-32.37 394.38-32.47 393.67-32.47L393.67-32.47Q392.23-32.47 391.07-32.12 389.91-31.76 389.1-31.09 388.28-30.42 387.83-29.46 387.37-28.49 387.37-27.27L387.37-27.27Q387.37-25.63 388.12-24.49 388.86-23.34 390.1-22.46 391.33-21.58 392.89-20.9 394.45-20.21 396.08-19.53 397.7-18.85 399.26-18.07 400.83-17.29 402.06-16.25 403.29-15.21 404.04-13.79 404.78-12.38 404.78-10.4L404.78-10.4Q404.78-8.23 403.84-6.26 402.9-4.3 401.21-2.8 399.51-1.29 397.13-0.4 394.75 0.49 391.87 0.49L391.87 0.49Q390.65 0.49 389.32 0.32 387.99 0.15 386.64-0.16 385.3-0.46 383.99-0.9 382.69-1.34 381.52-1.88L381.52-1.88 382.35-6.15 382.83-6.4Q385.32-4.96 387.88-4.13 390.43-3.3 392.72-3.3ZM426-31.98L426 0 421.21 0 421.21-31.98 409.35-31.98 410.08-35.77 438.35-35.77 437.62-31.98 426-31.98ZM464.76 0L461.37-9.72 445.94-9.72 442.59 0 438.08 0 451.38-35.77 456.46-35.77 469.79 0 464.76 0ZM447.23-13.45L460.03-13.45 455.29-27.42 453.9-32.4 453.41-32.4 452.02-27.42 447.23-13.45ZM481.83 0L477.04 0 477.04-35.77 498.01-35.77 497.28-31.98 481.83-31.98 481.83-20.56 495.59-20.56 494.86-16.77 481.83-16.77 481.83 0ZM526.55 0L523.16-9.72 507.73-9.72 504.38 0 499.86 0 513.17-35.77 518.25-35.77 531.58 0 526.55 0ZM509.02-13.45L521.81-13.45 517.08-27.42 515.69-32.4 515.2-32.4 513.81-27.42 509.02-13.45Z" opacity="1" transform="matrix(1,0,0,1,0,0)" fill="#ffffff" class="wordmark-text-0" data-fill-palette-color="primary" id="text-0"></path></svg></g></svg></g></svg></g></svg></g></svg></g><defs></defs></svg><rect width="395.52" height="86.30782239269911" fill="none" stroke="none" visibility="hidden"></rect></g></svg></g></svg>